<?xml version="1.0" encoding="UTF-8" standalone="no"?><svg xmlns="http://www.w3.org/2000/svg" xmlns:xlink="http://www.w3.org/1999/xlink" contentScriptType="application/ecmascript" contentStyleType="text/css" height="557" preserveAspectRatio="xMidYMid meet" style="shape-rendering:geometricPrecision; text-rendering:geometricPrecision; image-rendering:optimizeQuality; fill-rule:evenodd; clip-rule:evenodd" version="1.1" viewBox="0 0 738 557" width="738" zoomAndPan="magnify"><svg contentScriptType="application/ecmascript" contentStyleType="text/css" height="557" preserveAspectRatio="xMidYMid meet" version="1.1" viewBox="97 45 738 557" width="738" zoomAndPan="magnify"><svg contentScriptType="application/ecmascript" contentStyleType="text/css" height="602px" preserveAspectRatio="xMidYMid meet" version="1.1" width="836px" zoomAndPan="magnify">
<g><path d="M 678.5,93.5 C 710.787,92.3097 738.287,102.976 761,125.5C 779.903,149.241 788.737,176.408 787.5,207C 788.924,243.123 776.591,273.457 750.5,298C 729.855,312.991 706.688,320.157 681,319.5C 632.817,320.107 599.483,298.441 581,254.5C 569.219,216.556 571.552,179.556 588,143.5C 603.436,117.184 626.269,101.35 656.5,96C 663.981,95.1416 671.314,94.3083 678.5,93.5 Z M 674.5,139.5 C 708.413,138.39 727.579,154.723 732,188.5C 735.412,209.201 733.079,229.201 725,248.5C 718.031,262.402 706.864,270.568 691.5,273C 654.189,276.743 633.356,259.909 629,222.5C 625.84,200.792 629.174,180.125 639,160.5C 647.802,148.164 659.635,141.164 674.5,139.5 Z" fill="#01fd02" style="opacity:0.937"/></g>
<g><path d="M 158.5,96.5 C 174.263,96.0311 189.929,96.5311 205.5,98C 235.724,141.225 265.557,184.725 295,228.5C 295.333,185.5 295.667,142.5 296,99.5C 296.5,98.3333 297.333,97.5 298.5,97C 313.167,96.3333 327.833,96.3333 342.5,97C 343.416,97.3742 344.25,97.8742 345,98.5C 345.667,170.5 345.667,242.5 345,314.5C 344.5,315 344,315.5 343.5,316C 327.5,316.667 311.5,316.667 295.5,316C 265.667,272.167 235.833,228.333 206,184.5C 205.667,227.833 205.333,271.167 205,314.5C 204.5,315 204,315.5 203.5,316C 188.167,316.667 172.833,316.667 157.5,316C 157,315.5 156.5,315 156,314.5C 155.333,242.5 155.333,170.5 156,98.5C 156.995,97.9341 157.828,97.2674 158.5,96.5 Z" fill="#01fe01" style="opacity:0.953"/></g>
<g><path d="M 389.5,102.5 C 441.5,102.5 493.5,102.5 545.5,102.5C 545.5,116.833 545.5,131.167 545.5,145.5C 493.5,145.5 441.5,145.5 389.5,145.5C 389.5,131.167 389.5,116.833 389.5,102.5 Z" fill="#00ff00" style="opacity:1"/></g>
<g><path d="M 668.5,102.5 C 690.057,100.957 710.724,104.457 730.5,113C 758.733,129.257 774.566,153.757 778,186.5C 780.617,209.676 778.284,232.343 771,254.5C 757.212,287.661 732.379,306.161 696.5,310C 671.84,313.335 648.507,309.335 626.5,298C 599.804,280.137 585.304,254.971 583,222.5C 578.253,189.117 585.92,159.117 606,132.5C 623.079,114.543 643.913,104.543 668.5,102.5 Z M 674.5,139.5 C 659.635,141.164 647.802,148.164 639,160.5C 629.174,180.125 625.84,200.792 629,222.5C 633.356,259.909 654.189,276.743 691.5,273C 706.864,270.568 718.031,262.402 725,248.5C 733.079,229.201 735.412,209.201 732,188.5C 727.579,154.723 708.413,138.39 674.5,139.5 Z" fill="#34cf4a" style="opacity:1"/></g>
<g><path d="M -0.5,103.5 C 50.8333,103.5 102.167,103.5 153.5,103.5C 153.5,236.5 153.5,369.5 153.5,502.5C 153.5,503.5 153.5,504.5 153.5,505.5C 153.5,517.833 153.5,530.167 153.5,542.5C 102.167,542.5 50.8333,542.5 -0.5,542.5C -0.5,396.167 -0.5,249.833 -0.5,103.5 Z" fill="#fefffe" style="opacity:1"/></g>
<g><path d="M 164.5,105.5 C 164.5,172.833 164.5,240.167 164.5,307.5C 175.167,307.5 185.833,307.5 196.5,307.5C 185.679,308.495 174.679,308.828 163.5,308.5C 163.167,240.665 163.501,172.998 164.5,105.5 Z" fill="#29d93a" style="opacity:1"/></g>
<g><path d="M 164.5,105.5 C 176.851,105.168 189.185,105.501 201.5,106.5C 233,152.833 264.5,199.167 296,245.5C 298.333,248.167 300.667,248.167 303,245.5C 303.5,198.835 303.667,152.168 303.5,105.5C 314.5,105.5 325.5,105.5 336.5,105.5C 336.5,172.833 336.5,240.167 336.5,307.5C 324.5,307.5 312.5,307.5 300.5,307.5C 268.139,261.285 236.305,214.619 205,167.5C 202.333,164.833 199.667,164.833 197,167.5C 196.5,214.165 196.333,260.832 196.5,307.5C 185.833,307.5 175.167,307.5 164.5,307.5C 164.5,240.167 164.5,172.833 164.5,105.5 Z" fill="#34cf4a" style="opacity:1"/></g>
<g><path d="M 336.5,105.5 C 337.499,172.998 337.833,240.665 337.5,308.5C 324.989,308.829 312.655,308.495 300.5,307.5C 312.5,307.5 324.5,307.5 336.5,307.5C 336.5,240.167 336.5,172.833 336.5,105.5 Z" fill="#2dd53f" style="opacity:1"/></g>
<g><path d="M 398.5,111.5 C 444.5,111.5 490.5,111.5 536.5,111.5C 536.5,119.833 536.5,128.167 536.5,136.5C 490.5,136.5 444.5,136.5 398.5,136.5C 398.5,128.167 398.5,119.833 398.5,111.5 Z" fill="#35cf4a" style="opacity:1"/></g>
<g><path d="M 667.5,131.5 C 709.61,127.776 734.11,146.776 741,188.5C 743.972,211.069 740.972,232.736 732,253.5C 717.571,276.626 696.738,286.126 669.5,282C 646.102,277.272 630.935,263.438 624,240.5C 616.909,214.017 618.242,188.017 628,162.5C 636.389,145.93 649.556,135.597 667.5,131.5 Z M 674.5,139.5 C 659.635,141.164 647.802,148.164 639,160.5C 629.174,180.125 625.84,200.792 629,222.5C 633.356,259.909 654.189,276.743 691.5,273C 706.864,270.568 718.031,262.402 725,248.5C 733.079,229.201 735.412,209.201 732,188.5C 727.579,154.723 708.413,138.39 674.5,139.5 Z" fill="#01fd03" style="opacity:0.941"/></g>
<g><path d="M 389.5,184.5 C 403.167,184.5 416.833,184.5 430.5,184.5C 430.5,199.167 430.5,213.833 430.5,228.5C 416.833,228.5 403.167,228.5 389.5,228.5C 389.5,213.833 389.5,199.167 389.5,184.5 Z" fill="#00ff00" style="opacity:1"/></g>
<g><path d="M 446.5,184.5 C 460.167,184.5 473.833,184.5 487.5,184.5C 487.5,199.167 487.5,213.833 487.5,228.5C 473.833,228.5 460.167,228.5 446.5,228.5C 446.5,213.833 446.5,199.167 446.5,184.5 Z" fill="#00ff00" style="opacity:1"/></g>
<g><path d="M 504.5,184.5 C 518.167,184.5 531.833,184.5 545.5,184.5C 545.5,199.167 545.5,213.833 545.5,228.5C 531.833,228.5 518.167,228.5 504.5,228.5C 504.5,213.833 504.5,199.167 504.5,184.5 Z" fill="#00ff00" style="opacity:1"/></g>
<g><path d="M 398.5,193.5 C 406.167,193.5 413.833,193.5 421.5,193.5C 421.5,202.167 421.5,210.833 421.5,219.5C 413.833,219.5 406.167,219.5 398.5,219.5C 398.5,210.833 398.5,202.167 398.5,193.5 Z" fill="#35cf4a" style="opacity:1"/></g>
<g><path d="M 455.5,193.5 C 463.167,193.5 470.833,193.5 478.5,193.5C 478.5,202.167 478.5,210.833 478.5,219.5C 470.833,219.5 463.167,219.5 455.5,219.5C 455.5,210.833 455.5,202.167 455.5,193.5 Z" fill="#35cf4a" style="opacity:1"/></g>
<g><path d="M 513.5,193.5 C 521.167,193.5 528.833,193.5 536.5,193.5C 536.5,202.167 536.5,210.833 536.5,219.5C 528.833,219.5 521.167,219.5 513.5,219.5C 513.5,210.833 513.5,202.167 513.5,193.5 Z" fill="#35cf4a" style="opacity:1"/></g>
<g><path d="M 389.5,267.5 C 441.5,267.5 493.5,267.5 545.5,267.5C 545.5,282.167 545.5,296.833 545.5,311.5C 493.5,311.5 441.5,311.5 389.5,311.5C 389.5,296.833 389.5,282.167 389.5,267.5 Z" fill="#00ff00" style="opacity:1"/></g>
<g><path d="M 398.5,276.5 C 444.5,276.5 490.5,276.5 536.5,276.5C 536.5,285.167 536.5,293.833 536.5,302.5C 490.5,302.5 444.5,302.5 398.5,302.5C 398.5,293.833 398.5,285.167 398.5,276.5 Z" fill="#35cf4a" style="opacity:1"/></g>
<g><path d="M 388.5,347.5 C 401.308,345.974 409.474,351.308 413,363.5C 414.622,386.216 404.455,394.716 382.5,389C 375.894,384.291 372.561,377.791 372.5,369.5C 372.531,358.041 377.864,350.707 388.5,347.5 Z M 392.5,352.5 C 402.483,353.322 407.483,358.822 407.5,369C 406.417,383.525 399.084,388.525 385.5,384C 381.068,380.209 379.068,375.376 379.5,369.5C 379.064,359.96 383.397,354.293 392.5,352.5 Z" fill="#34ce4a" style="opacity:0.923"/></g>
<g><path d="M 512.5,347.5 C 528.308,346.307 536.641,353.64 537.5,369.5C 536.433,385.866 527.766,393.033 511.5,391C 498.955,386.082 494.121,376.915 497,363.5C 499.015,354.986 504.182,349.653 512.5,347.5 Z M 515.5,352.5 C 526.01,353.516 531.01,359.349 530.5,370C 529.788,383.053 523.121,388.053 510.5,385C 505.091,381.351 502.424,376.184 502.5,369.5C 502.342,360.064 506.675,354.398 515.5,352.5 Z" fill="#34ce4a" style="opacity:0.933"/></g>
<g><path d="M 763.5,347.5 C 774.043,346.265 781.376,350.432 785.5,360C 785.355,360.772 785.022,361.439 784.5,362C 782.741,362.798 781.074,362.631 779.5,361.5C 777.708,355.6 773.708,352.6 767.5,352.5C 757.919,353.946 753.253,359.613 753.5,369.5C 754.056,382.607 760.722,387.774 773.5,385C 777.244,383.113 779.577,380.113 780.5,376C 782.134,375.506 783.801,375.34 785.5,375.5C 784.889,384.28 780.222,389.447 771.5,391C 759.615,392.644 751.782,387.811 748,376.5C 744.884,362.049 750.051,352.382 763.5,347.5 Z" fill="#34ce4a" style="opacity:0.928"/></g>
<g><path d="M 159.5,348.5 C 162.97,347.875 165.804,348.875 168,351.5C 174.333,360.833 180.667,370.167 187,379.5C 187.5,369.172 187.666,358.839 187.5,348.5C 189.833,348.5 192.167,348.5 194.5,348.5C 194.5,362.5 194.5,376.5 194.5,390.5C 191.315,390.98 188.481,390.314 186,388.5C 179.58,378.659 172.913,368.993 166,359.5C 165.5,369.828 165.334,380.161 165.5,390.5C 163.5,390.5 161.5,390.5 159.5,390.5C 159.5,376.5 159.5,362.5 159.5,348.5 Z" fill="#34ce4a" style="opacity:0.896"/></g>
<g><path d="M 217.5,348.5 C 226.833,348.5 236.167,348.5 245.5,348.5C 245.714,350.144 245.38,351.644 244.5,353C 237.842,353.5 231.175,353.666 224.5,353.5C 224.5,357.833 224.5,362.167 224.5,366.5C 230.833,366.5 237.167,366.5 243.5,366.5C 243.5,368.167 243.5,369.833 243.5,371.5C 237.167,371.5 230.833,371.5 224.5,371.5C 224.5,376.167 224.5,380.833 224.5,385.5C 231.5,385.5 238.5,385.5 245.5,385.5C 245.5,387.167 245.5,388.833 245.5,390.5C 236.167,390.5 226.833,390.5 217.5,390.5C 217.5,376.5 217.5,362.5 217.5,348.5 Z" fill="#34ce4a" style="opacity:0.937"/></g>
<g><path d="M 265.5,348.5 C 267.833,348.5 270.167,348.5 272.5,348.5C 272.333,359.172 272.5,369.839 273,380.5C 275.075,384.537 278.408,386.204 283,385.5C 288.265,385.899 291.598,383.565 293,378.5C 293.5,368.506 293.666,358.506 293.5,348.5C 295.5,348.5 297.5,348.5 299.5,348.5C 299.667,359.505 299.5,370.505 299,381.5C 296.093,388.624 290.76,391.957 283,391.5C 275.688,391.848 270.355,388.848 267,382.5C 265.591,371.23 265.091,359.896 265.5,348.5 Z" fill="#34ce4a" style="opacity:0.939"/></g>
<g><path d="M 323.5,348.5 C 330.508,348.334 337.508,348.5 344.5,349C 352.079,351.483 354.579,356.65 352,364.5C 350.749,367.381 348.583,369.214 345.5,370C 348,371.167 349.833,373 351,375.5C 352.642,380.402 353.809,385.402 354.5,390.5C 352.5,390.5 350.5,390.5 348.5,390.5C 347.754,384.842 346.088,379.509 343.5,374.5C 342.624,373.749 341.624,373.249 340.5,373C 336.848,372.501 333.182,372.335 329.5,372.5C 329.5,378.5 329.5,384.5 329.5,390.5C 327.5,390.5 325.5,390.5 323.5,390.5C 323.5,376.5 323.5,362.5 323.5,348.5 Z M 329.5,353.5 C 333.846,353.334 338.179,353.501 342.5,354C 346.124,356.161 347.291,359.328 346,363.5C 344.786,365.049 343.286,366.215 341.5,367C 337.514,367.499 333.514,367.666 329.5,367.5C 329.5,362.833 329.5,358.167 329.5,353.5 Z" fill="#34ce4a" style="opacity:0.958"/></g>
<g><path d="M 435.5,348.5 C 437.924,348.192 440.257,348.526 442.5,349.5C 446.667,356.5 450.833,363.5 455,370.5C 459.584,363.668 463.917,356.668 468,349.5C 470.381,348.565 472.881,348.232 475.5,348.5C 475.5,362.5 475.5,376.5 475.5,390.5C 473.5,390.5 471.5,390.5 469.5,390.5C 469.667,379.828 469.5,369.161 469,358.5C 465.415,364.002 462.081,369.669 459,375.5C 457.116,377.576 454.949,377.91 452.5,376.5C 448.8,370.63 445.3,364.63 442,358.5C 441.5,369.161 441.333,379.828 441.5,390.5C 439.5,390.5 437.5,390.5 435.5,390.5C 435.5,376.5 435.5,362.5 435.5,348.5 Z" fill="#34ce4a" style="opacity:0.97"/></g>
<g><path d="M 559.5,348.5 C 566.508,348.334 573.508,348.5 580.5,349C 588.079,351.483 590.579,356.65 588,364.5C 586.749,367.381 584.583,369.214 581.5,370C 584,371.167 585.833,373 587,375.5C 588.642,380.402 589.809,385.402 590.5,390.5C 588.5,390.5 586.5,390.5 584.5,390.5C 583.754,384.842 582.088,379.509 579.5,374.5C 578.624,373.749 577.624,373.249 576.5,373C 572.848,372.501 569.182,372.335 565.5,372.5C 565.5,378.5 565.5,384.5 565.5,390.5C 563.5,390.5 561.5,390.5 559.5,390.5C 559.5,376.5 559.5,362.5 559.5,348.5 Z M 565.5,353.5 C 569.846,353.334 574.179,353.501 578.5,354C 582.124,356.161 583.291,359.328 582,363.5C 580.786,365.049 579.286,366.215 577.5,367C 573.514,367.499 569.514,367.666 565.5,367.5C 565.5,362.833 565.5,358.167 565.5,353.5 Z" fill="#34ce4a" style="opacity:0.958"/></g>
<g><path d="M 611.5,348.5 C 618.175,348.334 624.842,348.5 631.5,349C 635.896,349.73 638.73,352.23 640,356.5C 642.474,364.38 639.974,369.88 632.5,373C 627.511,373.499 622.511,373.666 617.5,373.5C 617.5,379.167 617.5,384.833 617.5,390.5C 615.5,390.5 613.5,390.5 611.5,390.5C 611.5,376.5 611.5,362.5 611.5,348.5 Z M 617.5,353.5 C 621.846,353.334 626.179,353.501 630.5,354C 635.986,359.081 635.653,363.748 629.5,368C 625.514,368.499 621.514,368.666 617.5,368.5C 617.5,363.5 617.5,358.5 617.5,353.5 Z" fill="#34ce4a" style="opacity:0.957"/></g>
<g><path d="M 661.5,348.5 C 663.833,348.5 666.167,348.5 668.5,348.5C 668.5,354.167 668.5,359.833 668.5,365.5C 675.833,365.5 683.167,365.5 690.5,365.5C 690.5,359.833 690.5,354.167 690.5,348.5C 692.5,348.5 694.5,348.5 696.5,348.5C 696.5,362.5 696.5,376.5 696.5,390.5C 694.5,390.5 692.5,390.5 690.5,390.5C 690.5,383.833 690.5,377.167 690.5,370.5C 683.167,370.5 675.833,370.5 668.5,370.5C 668.5,377.167 668.5,383.833 668.5,390.5C 666.167,390.5 663.833,390.5 661.5,390.5C 661.5,376.5 661.5,362.5 661.5,348.5 Z" fill="#34ce4a" style="opacity:0.95"/></g>
<g><path d="M 720.5,348.5 C 722.5,348.5 724.5,348.5 726.5,348.5C 726.5,362.5 726.5,376.5 726.5,390.5C 724.5,390.5 722.5,390.5 720.5,390.5C 720.5,376.5 720.5,362.5 720.5,348.5 Z" fill="#34cf4a" style="opacity:0.967"/></g>
<g><path d="M 344.5,424.5 C 355.043,423.265 362.376,427.432 366.5,437C 366.355,437.772 366.022,438.439 365.5,439C 363.741,439.798 362.074,439.631 360.5,438.5C 358.708,432.6 354.708,429.6 348.5,429.5C 338.919,430.946 334.253,436.613 334.5,446.5C 335.056,459.607 341.722,464.774 354.5,462C 358.244,460.113 360.577,457.113 361.5,453C 363.134,452.506 364.801,452.34 366.5,452.5C 365.889,461.28 361.222,466.447 352.5,468C 340.615,469.644 332.782,464.811 329,453.5C 325.884,439.049 331.051,429.382 344.5,424.5 Z" fill="#34ce4a" style="opacity:0.928"/></g>
<g><path d="M 527.5,424.5 C 543.308,423.307 551.641,430.64 552.5,446.5C 551.433,462.866 542.766,470.033 526.5,468C 513.955,463.082 509.121,453.915 512,440.5C 514.015,431.986 519.182,426.653 527.5,424.5 Z M 530.5,429.5 C 541.01,430.516 546.01,436.349 545.5,447C 544.788,460.053 538.121,465.053 525.5,462C 520.091,458.351 517.424,453.184 517.5,446.5C 517.342,437.064 521.675,431.398 530.5,429.5 Z" fill="#34ce4a" style="opacity:0.933"/></g>
<g><path d="M 704.5,424.5 C 711.069,423.859 717.069,425.359 722.5,429C 725.373,431.913 726.706,435.413 726.5,439.5C 722.838,440.363 720.672,439.03 720,435.5C 714.667,429.622 708.5,428.456 701.5,432C 697.068,435.791 695.068,440.624 695.5,446.5C 695.704,459.205 702.037,464.372 714.5,462C 718.271,460.128 720.604,457.128 721.5,453C 723.956,452.054 725.956,452.554 727.5,454.5C 724.157,465.321 716.823,469.821 705.5,468C 695.6,466.398 690.1,460.564 689,450.5C 687.333,437.468 692.499,428.802 704.5,424.5 Z" fill="#34ce4a" style="opacity:0.905"/></g>
<g><path d="M 766.5,424.5 C 773.651,423.606 779.818,425.606 785,430.5C 785.977,432.74 786.477,435.073 786.5,437.5C 784.5,437.5 782.5,437.5 780.5,437.5C 780.035,432.489 777.201,429.823 772,429.5C 769.416,430.104 766.916,430.937 764.5,432C 762.987,434.916 763.32,437.582 765.5,440C 772.778,441.867 779.611,444.701 786,448.5C 790.158,460.86 785.658,467.527 772.5,468.5C 762.556,468.88 756.889,464.213 755.5,454.5C 757.527,454.338 759.527,454.505 761.5,455C 762.663,460.522 766.163,463.355 772,463.5C 775.434,463.064 778.434,461.73 781,459.5C 781.895,456.534 781.395,453.867 779.5,451.5C 773.097,449.151 766.764,446.651 760.5,444C 754.525,435.069 756.525,428.569 766.5,424.5 Z" fill="#34ce4a" style="opacity:0.935"/></g>
<g><path d="M 158.5,425.5 C 167.833,425.5 177.167,425.5 186.5,425.5C 186.714,427.144 186.38,428.644 185.5,430C 178.842,430.5 172.175,430.666 165.5,430.5C 165.5,434.833 165.5,439.167 165.5,443.5C 171.833,443.5 178.167,443.5 184.5,443.5C 184.5,445.167 184.5,446.833 184.5,448.5C 178.167,448.5 171.833,448.5 165.5,448.5C 165.5,453.167 165.5,457.833 165.5,462.5C 172.5,462.5 179.5,462.5 186.5,462.5C 186.5,464.167 186.5,465.833 186.5,467.5C 177.167,467.5 167.833,467.5 158.5,467.5C 158.5,453.5 158.5,439.5 158.5,425.5 Z" fill="#34ce4a" style="opacity:0.937"/></g>
<g><path d="M 217.5,425.5 C 219.5,425.5 221.5,425.5 223.5,425.5C 223.5,437.833 223.5,450.167 223.5,462.5C 229.842,462.334 236.175,462.5 242.5,463C 243.38,464.356 243.714,465.856 243.5,467.5C 234.833,467.5 226.167,467.5 217.5,467.5C 217.5,453.5 217.5,439.5 217.5,425.5 Z" fill="#34cf4a" style="opacity:0.961"/></g>
<g><path d="M 272.5,425.5 C 281.5,425.5 290.5,425.5 299.5,425.5C 299.5,427.167 299.5,428.833 299.5,430.5C 292.5,430.5 285.5,430.5 278.5,430.5C 278.5,434.833 278.5,439.167 278.5,443.5C 284.842,443.334 291.175,443.5 297.5,444C 298.38,445.356 298.714,446.856 298.5,448.5C 291.833,448.5 285.167,448.5 278.5,448.5C 278.5,453.167 278.5,457.833 278.5,462.5C 285.5,462.5 292.5,462.5 299.5,462.5C 299.5,464.167 299.5,465.833 299.5,467.5C 290.5,467.5 281.5,467.5 272.5,467.5C 272.5,453.5 272.5,439.5 272.5,425.5 Z" fill="#34cf4a" style="opacity:0.961"/></g>
<g><path d="M 393.5,425.5 C 403.5,425.5 413.5,425.5 423.5,425.5C 423.5,427.167 423.5,428.833 423.5,430.5C 419.5,430.5 415.5,430.5 411.5,430.5C 411.5,442.833 411.5,455.167 411.5,467.5C 409.5,467.5 407.5,467.5 405.5,467.5C 405.5,455.167 405.5,442.833 405.5,430.5C 401.5,430.5 397.5,430.5 393.5,430.5C 393.5,428.833 393.5,427.167 393.5,425.5 Z" fill="#34ce4a" style="opacity:0.966"/></g>
<g><path d="M 452.5,425.5 C 459.508,425.334 466.508,425.5 473.5,426C 481.079,428.483 483.579,433.65 481,441.5C 479.749,444.381 477.583,446.214 474.5,447C 477,448.167 478.833,450 480,452.5C 481.642,457.402 482.809,462.402 483.5,467.5C 481.5,467.5 479.5,467.5 477.5,467.5C 476.754,461.842 475.088,456.509 472.5,451.5C 471.624,450.749 470.624,450.249 469.5,450C 465.848,449.501 462.182,449.335 458.5,449.5C 458.5,455.5 458.5,461.5 458.5,467.5C 456.5,467.5 454.5,467.5 452.5,467.5C 452.5,453.5 452.5,439.5 452.5,425.5 Z M 458.5,430.5 C 462.846,430.334 467.179,430.501 471.5,431C 475.124,433.161 476.291,436.328 475,440.5C 473.786,442.049 472.286,443.215 470.5,444C 466.514,444.499 462.514,444.666 458.5,444.5C 458.5,439.833 458.5,435.167 458.5,430.5 Z" fill="#34ce4a" style="opacity:0.958"/></g>
<g><path d="M 583.5,425.5 C 586.119,425.232 588.619,425.565 591,426.5C 598,436.833 605,447.167 612,457.5C 612.5,446.839 612.667,436.172 612.5,425.5C 614.5,425.5 616.5,425.5 618.5,425.5C 618.5,439.5 618.5,453.5 618.5,467.5C 615.881,467.768 613.381,467.435 611,466.5C 604,456.167 597,445.833 590,435.5C 589.5,446.161 589.333,456.828 589.5,467.5C 587.5,467.5 585.5,467.5 583.5,467.5C 583.5,453.5 583.5,439.5 583.5,425.5 Z" fill="#34ce4a" style="opacity:0.94"/></g>
<g><path d="M 651.5,425.5 C 653.833,425.5 656.167,425.5 658.5,425.5C 658.5,439.5 658.5,453.5 658.5,467.5C 656.167,467.5 653.833,467.5 651.5,467.5C 651.5,453.5 651.5,439.5 651.5,425.5 Z" fill="#34ce4a" style="opacity:0.9"/></g>
<g><path d="M 473.5,501.5 C 486.308,499.974 494.474,505.308 498,517.5C 499.622,540.216 489.455,548.716 467.5,543C 460.894,538.291 457.561,531.791 457.5,523.5C 457.531,512.041 462.864,504.707 473.5,501.5 Z M 477.5,506.5 C 487.483,507.322 492.483,512.822 492.5,523C 491.417,537.525 484.084,542.525 470.5,538C 466.068,534.209 464.068,529.376 464.5,523.5C 464.064,513.96 468.397,508.293 477.5,506.5 Z" fill="#34ce4a" style="opacity:0.923"/></g>
<g><path d="M 766.5,501.5 C 773.651,500.606 779.818,502.606 785,507.5C 785.977,509.74 786.477,512.073 786.5,514.5C 784.5,514.5 782.5,514.5 780.5,514.5C 780.035,509.489 777.201,506.823 772,506.5C 769.416,507.104 766.916,507.937 764.5,509C 762.987,511.916 763.32,514.582 765.5,517C 772.778,518.867 779.611,521.701 786,525.5C 790.158,537.86 785.658,544.527 772.5,545.5C 762.556,545.88 756.889,541.213 755.5,531.5C 757.527,531.338 759.527,531.505 761.5,532C 762.663,537.522 766.163,540.355 772,540.5C 775.434,540.064 778.434,538.73 781,536.5C 781.895,533.534 781.395,530.867 779.5,528.5C 773.097,526.151 766.764,523.651 760.5,521C 754.525,512.069 756.525,505.569 766.5,501.5 Z" fill="#34ce4a" style="opacity:0.935"/></g>
<g><path d="M 153.5,502.5 C 155.833,502.5 158.167,502.5 160.5,502.5C 163.015,513.892 165.848,525.226 169,536.5C 172.478,525.235 175.645,513.902 178.5,502.5C 181.119,502.232 183.619,502.565 186,503.5C 188.873,513.95 192.039,524.283 195.5,534.5C 198.642,524.601 201.475,514.601 204,504.5C 205.754,502.75 207.921,502.083 210.5,502.5C 206.978,515.903 203.144,529.236 199,542.5C 196.894,544.291 194.394,544.958 191.5,544.5C 188.645,533.098 185.478,521.765 182,510.5C 178.518,521.764 175.351,533.097 172.5,544.5C 169.606,544.958 167.106,544.291 165,542.5C 161.429,529.962 157.596,517.629 153.5,505.5C 153.5,504.5 153.5,503.5 153.5,502.5 Z" fill="#34ce4a" style="opacity:0.952"/></g>
<g><path d="M 240.5,502.5 C 242.5,502.5 244.5,502.5 246.5,502.5C 246.5,516.5 246.5,530.5 246.5,544.5C 244.5,544.5 242.5,544.5 240.5,544.5C 240.5,530.5 240.5,516.5 240.5,502.5 Z" fill="#34cf4a" style="opacity:0.967"/></g>
<g><path d="M 275.5,502.5 C 285.5,502.5 295.5,502.5 305.5,502.5C 305.5,504.167 305.5,505.833 305.5,507.5C 301.833,507.5 298.167,507.5 294.5,507.5C 294.5,519.833 294.5,532.167 294.5,544.5C 292.167,544.5 289.833,544.5 287.5,544.5C 287.5,532.167 287.5,519.833 287.5,507.5C 283.5,507.5 279.5,507.5 275.5,507.5C 275.5,505.833 275.5,504.167 275.5,502.5 Z" fill="#34ce4a" style="opacity:0.926"/></g>
<g><path d="M 335.5,502.5 C 337.833,502.5 340.167,502.5 342.5,502.5C 342.5,508.167 342.5,513.833 342.5,519.5C 349.833,519.5 357.167,519.5 364.5,519.5C 364.5,513.833 364.5,508.167 364.5,502.5C 366.5,502.5 368.5,502.5 370.5,502.5C 370.5,516.5 370.5,530.5 370.5,544.5C 368.5,544.5 366.5,544.5 364.5,544.5C 364.5,537.833 364.5,531.167 364.5,524.5C 357.167,524.5 349.833,524.5 342.5,524.5C 342.5,531.167 342.5,537.833 342.5,544.5C 340.167,544.5 337.833,544.5 335.5,544.5C 335.5,530.5 335.5,516.5 335.5,502.5 Z" fill="#34ce4a" style="opacity:0.95"/></g>
<g><path d="M 527.5,503.5 C 529.628,502.371 531.961,502.204 534.5,503C 537.375,507.917 540.375,512.751 543.5,517.5C 546.944,512.791 550.277,507.958 553.5,503C 555.833,502.333 558.167,502.333 560.5,503C 556.043,509.414 551.709,515.914 547.5,522.5C 551.576,530.071 556.243,537.238 561.5,544C 558.773,544.818 556.106,544.652 553.5,543.5C 550.402,538.291 547.068,533.291 543.5,528.5C 539.97,533.532 536.636,538.699 533.5,544C 531.098,544.814 528.765,544.647 526.5,543.5C 531.046,536.79 535.38,529.957 539.5,523C 535.857,516.202 531.857,509.702 527.5,503.5 Z" fill="#34ce4a" style="opacity:0.927"/></g>
<g><path d="M 590.5,502.5 C 592.833,502.5 595.167,502.5 597.5,502.5C 597.5,516.5 597.5,530.5 597.5,544.5C 595.167,544.5 592.833,544.5 590.5,544.5C 590.5,530.5 590.5,516.5 590.5,502.5 Z" fill="#34ce4a" style="opacity:0.9"/></g>
<g><path d="M 631.5,502.5 C 638.508,502.334 645.508,502.5 652.5,503C 662.482,506.113 667.149,512.947 666.5,523.5C 667.149,534.053 662.482,540.887 652.5,544C 645.508,544.5 638.508,544.666 631.5,544.5C 631.5,530.5 631.5,516.5 631.5,502.5 Z M 637.5,507.5 C 655.826,505.654 662.992,513.654 659,531.5C 657.01,535.49 653.843,537.99 649.5,539C 645.514,539.499 641.514,539.666 637.5,539.5C 637.5,528.833 637.5,518.167 637.5,507.5 Z" fill="#34ce4a" style="opacity:0.951"/></g>
<g><path d="M 699.5,502.5 C 708.833,502.5 718.167,502.5 727.5,502.5C 727.714,504.144 727.38,505.644 726.5,507C 719.842,507.5 713.175,507.666 706.5,507.5C 706.5,511.833 706.5,516.167 706.5,520.5C 712.833,520.5 719.167,520.5 725.5,520.5C 725.5,522.167 725.5,523.833 725.5,525.5C 719.167,525.5 712.833,525.5 706.5,525.5C 706.5,530.167 706.5,534.833 706.5,539.5C 713.5,539.5 720.5,539.5 727.5,539.5C 727.5,541.167 727.5,542.833 727.5,544.5C 718.167,544.5 708.833,544.5 699.5,544.5C 699.5,530.5 699.5,516.5 699.5,502.5 Z" fill="#34ce4a" style="opacity:0.937"/></g>
</svg></svg></svg>